<mxfile host="Electron" modified="2024-02-09T22:10:48.984Z" agent="Mozilla/5.0 (Windows NT 10.0; Win64; x64) AppleWebKit/537.36 (KHTML, like Gecko) draw.io/23.0.2 Chrome/120.0.6099.109 Electron/28.1.0 Safari/537.36" etag="7bMtg23SofCL0-CXBuaD" version="23.0.2" type="device">
  <diagram name="Page-1" id="GpJkARsk2_UbjOOnj7gu">
    <mxGraphModel dx="1687" dy="984" grid="1" gridSize="10" guides="1" tooltips="1" connect="1" arrows="1" fold="1" page="1" pageScale="1" pageWidth="1200" pageHeight="1920" math="0" shadow="0">
      <root>
        <mxCell id="0" />
        <mxCell id="1" parent="0" />
        <mxCell id="PboGU6bulFJKmP7m2C9N-3" value="" style="edgeStyle=orthogonalEdgeStyle;rounded=0;orthogonalLoop=1;jettySize=auto;html=1;" edge="1" parent="1" source="PboGU6bulFJKmP7m2C9N-1" target="PboGU6bulFJKmP7m2C9N-2">
          <mxGeometry relative="1" as="geometry" />
        </mxCell>
        <mxCell id="PboGU6bulFJKmP7m2C9N-1" value="Start" style="strokeWidth=2;html=1;shape=mxgraph.flowchart.start_1;whiteSpace=wrap;" vertex="1" parent="1">
          <mxGeometry x="550" y="170" width="100" height="60" as="geometry" />
        </mxCell>
        <mxCell id="PboGU6bulFJKmP7m2C9N-5" value="" style="edgeStyle=orthogonalEdgeStyle;rounded=0;orthogonalLoop=1;jettySize=auto;html=1;" edge="1" parent="1" source="PboGU6bulFJKmP7m2C9N-2" target="PboGU6bulFJKmP7m2C9N-4">
          <mxGeometry relative="1" as="geometry" />
        </mxCell>
        <mxCell id="PboGU6bulFJKmP7m2C9N-2" value="Declarations&lt;br&gt;&lt;span style=&quot;white-space: pre;&quot;&gt;&lt;span style=&quot;white-space: pre;&quot;&gt;&#x9;&lt;/span&gt;String randWord&lt;br/&gt;&lt;span style=&quot;white-space: pre;&quot;&gt;&#x9;&lt;/span&gt;String wordLookUp&#x9;&lt;/span&gt;" style="whiteSpace=wrap;html=1;strokeWidth=2;align=left;" vertex="1" parent="1">
          <mxGeometry x="525" y="260" width="150" height="60" as="geometry" />
        </mxCell>
        <mxCell id="PboGU6bulFJKmP7m2C9N-7" value="" style="edgeStyle=orthogonalEdgeStyle;rounded=0;orthogonalLoop=1;jettySize=auto;html=1;" edge="1" parent="1" source="PboGU6bulFJKmP7m2C9N-4" target="PboGU6bulFJKmP7m2C9N-6">
          <mxGeometry relative="1" as="geometry" />
        </mxCell>
        <mxCell id="PboGU6bulFJKmP7m2C9N-4" value="randWord = &quot;Code&quot;" style="whiteSpace=wrap;html=1;align=left;strokeWidth=2;" vertex="1" parent="1">
          <mxGeometry x="540" y="350" width="120" height="40" as="geometry" />
        </mxCell>
        <mxCell id="PboGU6bulFJKmP7m2C9N-9" value="" style="edgeStyle=orthogonalEdgeStyle;rounded=0;orthogonalLoop=1;jettySize=auto;html=1;" edge="1" parent="1" source="PboGU6bulFJKmP7m2C9N-6" target="PboGU6bulFJKmP7m2C9N-8">
          <mxGeometry relative="1" as="geometry" />
        </mxCell>
        <mxCell id="PboGU6bulFJKmP7m2C9N-6" value="output &quot;Current Word: &quot; + randWord" style="shape=parallelogram;perimeter=parallelogramPerimeter;whiteSpace=wrap;html=1;fixedSize=1;align=center;strokeWidth=2;" vertex="1" parent="1">
          <mxGeometry x="515" y="420" width="170" height="40" as="geometry" />
        </mxCell>
        <mxCell id="PboGU6bulFJKmP7m2C9N-11" value="" style="edgeStyle=orthogonalEdgeStyle;rounded=0;orthogonalLoop=1;jettySize=auto;html=1;" edge="1" parent="1" source="PboGU6bulFJKmP7m2C9N-8" target="PboGU6bulFJKmP7m2C9N-10">
          <mxGeometry relative="1" as="geometry" />
        </mxCell>
        <mxCell id="PboGU6bulFJKmP7m2C9N-8" value="output &quot;Enter a word to look up: &quot;" style="shape=parallelogram;perimeter=parallelogramPerimeter;whiteSpace=wrap;html=1;fixedSize=1;align=center;strokeWidth=2;" vertex="1" parent="1">
          <mxGeometry x="498" y="490" width="205" height="40" as="geometry" />
        </mxCell>
        <mxCell id="PboGU6bulFJKmP7m2C9N-13" value="" style="edgeStyle=orthogonalEdgeStyle;rounded=0;orthogonalLoop=1;jettySize=auto;html=1;entryX=0.5;entryY=0;entryDx=0;entryDy=0;exitX=1;exitY=0.5;exitDx=0;exitDy=0;" edge="1" parent="1" source="PboGU6bulFJKmP7m2C9N-10" target="PboGU6bulFJKmP7m2C9N-12">
          <mxGeometry relative="1" as="geometry" />
        </mxCell>
        <mxCell id="PboGU6bulFJKmP7m2C9N-15" value="" style="edgeStyle=orthogonalEdgeStyle;rounded=0;orthogonalLoop=1;jettySize=auto;html=1;entryX=0.5;entryY=0;entryDx=0;entryDy=0;exitX=0;exitY=0.5;exitDx=0;exitDy=0;" edge="1" parent="1" source="PboGU6bulFJKmP7m2C9N-10" target="PboGU6bulFJKmP7m2C9N-14">
          <mxGeometry relative="1" as="geometry" />
        </mxCell>
        <mxCell id="PboGU6bulFJKmP7m2C9N-10" value="Is wordLookUp = randWord?" style="rhombus;whiteSpace=wrap;html=1;strokeWidth=2;" vertex="1" parent="1">
          <mxGeometry x="530" y="560" width="139.5" height="70" as="geometry" />
        </mxCell>
        <mxCell id="PboGU6bulFJKmP7m2C9N-12" value="Show Definition" style="whiteSpace=wrap;html=1;strokeWidth=2;" vertex="1" parent="1">
          <mxGeometry x="680" y="624" width="99.5" height="36" as="geometry" />
        </mxCell>
        <mxCell id="PboGU6bulFJKmP7m2C9N-17" value="" style="edgeStyle=orthogonalEdgeStyle;rounded=0;orthogonalLoop=1;jettySize=auto;html=1;exitX=0;exitY=0.5;exitDx=0;exitDy=0;entryX=0.5;entryY=0;entryDx=0;entryDy=0;" edge="1" parent="1" source="PboGU6bulFJKmP7m2C9N-14" target="PboGU6bulFJKmP7m2C9N-16">
          <mxGeometry relative="1" as="geometry" />
        </mxCell>
        <mxCell id="PboGU6bulFJKmP7m2C9N-19" style="edgeStyle=orthogonalEdgeStyle;rounded=0;orthogonalLoop=1;jettySize=auto;html=1;exitX=1;exitY=0.5;exitDx=0;exitDy=0;entryX=0.5;entryY=0;entryDx=0;entryDy=0;" edge="1" parent="1" source="PboGU6bulFJKmP7m2C9N-14" target="PboGU6bulFJKmP7m2C9N-18">
          <mxGeometry relative="1" as="geometry" />
        </mxCell>
        <mxCell id="PboGU6bulFJKmP7m2C9N-14" value="randWord &amp;gt; word" style="rhombus;whiteSpace=wrap;html=1;strokeWidth=2;" vertex="1" parent="1">
          <mxGeometry x="340" y="618" width="135" height="66" as="geometry" />
        </mxCell>
        <mxCell id="PboGU6bulFJKmP7m2C9N-16" value="Go Back" style="whiteSpace=wrap;html=1;strokeWidth=2;" vertex="1" parent="1">
          <mxGeometry x="230" y="680" width="90" height="40" as="geometry" />
        </mxCell>
        <mxCell id="PboGU6bulFJKmP7m2C9N-18" value="Go Forward" style="whiteSpace=wrap;html=1;strokeWidth=2;" vertex="1" parent="1">
          <mxGeometry x="498" y="680" width="90" height="40" as="geometry" />
        </mxCell>
        <mxCell id="PboGU6bulFJKmP7m2C9N-20" value="" style="endArrow=none;html=1;rounded=0;entryX=0.5;entryY=1;entryDx=0;entryDy=0;" edge="1" parent="1" target="PboGU6bulFJKmP7m2C9N-16">
          <mxGeometry width="50" height="50" relative="1" as="geometry">
            <mxPoint x="275" y="780" as="sourcePoint" />
            <mxPoint x="280" y="780" as="targetPoint" />
          </mxGeometry>
        </mxCell>
        <mxCell id="PboGU6bulFJKmP7m2C9N-21" value="" style="endArrow=none;html=1;rounded=0;entryX=0.5;entryY=1;entryDx=0;entryDy=0;" edge="1" parent="1" target="PboGU6bulFJKmP7m2C9N-18">
          <mxGeometry width="50" height="50" relative="1" as="geometry">
            <mxPoint x="543" y="780" as="sourcePoint" />
            <mxPoint x="550" y="740" as="targetPoint" />
          </mxGeometry>
        </mxCell>
        <mxCell id="PboGU6bulFJKmP7m2C9N-22" value="" style="endArrow=none;html=1;rounded=0;" edge="1" parent="1">
          <mxGeometry width="50" height="50" relative="1" as="geometry">
            <mxPoint x="270" y="780" as="sourcePoint" />
            <mxPoint x="550" y="780" as="targetPoint" />
          </mxGeometry>
        </mxCell>
        <mxCell id="PboGU6bulFJKmP7m2C9N-24" value="" style="endArrow=none;html=1;rounded=0;entryX=0.5;entryY=1;entryDx=0;entryDy=0;" edge="1" parent="1" target="PboGU6bulFJKmP7m2C9N-12">
          <mxGeometry width="50" height="50" relative="1" as="geometry">
            <mxPoint x="730" y="800" as="sourcePoint" />
            <mxPoint x="830" y="750" as="targetPoint" />
          </mxGeometry>
        </mxCell>
        <mxCell id="PboGU6bulFJKmP7m2C9N-25" value="" style="endArrow=none;html=1;rounded=0;" edge="1" parent="1">
          <mxGeometry width="50" height="50" relative="1" as="geometry">
            <mxPoint x="400" y="800" as="sourcePoint" />
            <mxPoint x="400" y="780" as="targetPoint" />
          </mxGeometry>
        </mxCell>
        <mxCell id="PboGU6bulFJKmP7m2C9N-27" value="" style="endArrow=classic;html=1;rounded=0;" edge="1" parent="1">
          <mxGeometry width="50" height="50" relative="1" as="geometry">
            <mxPoint x="600" y="800" as="sourcePoint" />
            <mxPoint x="600" y="820" as="targetPoint" />
          </mxGeometry>
        </mxCell>
        <mxCell id="PboGU6bulFJKmP7m2C9N-33" value="" style="endArrow=none;html=1;rounded=0;" edge="1" parent="1">
          <mxGeometry width="50" height="50" relative="1" as="geometry">
            <mxPoint x="400" y="800" as="sourcePoint" />
            <mxPoint x="730" y="800" as="targetPoint" />
          </mxGeometry>
        </mxCell>
        <mxCell id="PboGU6bulFJKmP7m2C9N-34" value="Stop" style="strokeWidth=2;html=1;shape=mxgraph.flowchart.start_1;whiteSpace=wrap;" vertex="1" parent="1">
          <mxGeometry x="565.5" y="820" width="70" height="40" as="geometry" />
        </mxCell>
        <mxCell id="PboGU6bulFJKmP7m2C9N-35" value="Declarations" style="strokeWidth=2;html=1;shape=mxgraph.flowchart.annotation_2;align=left;labelPosition=right;pointerEvents=1;" vertex="1" parent="1">
          <mxGeometry x="700" y="265" width="50" height="50" as="geometry" />
        </mxCell>
        <mxCell id="PboGU6bulFJKmP7m2C9N-36" value="assigning randWord to a random word" style="strokeWidth=2;html=1;shape=mxgraph.flowchart.annotation_2;align=left;labelPosition=right;pointerEvents=1;" vertex="1" parent="1">
          <mxGeometry x="704.75" y="345" width="50" height="50" as="geometry" />
        </mxCell>
        <mxCell id="PboGU6bulFJKmP7m2C9N-40" value="This is not a loop structure because question &lt;br&gt;state only to describe the process to take&amp;nbsp;" style="strokeWidth=2;html=1;shape=mxgraph.flowchart.annotation_2;align=left;labelPosition=right;pointerEvents=1;" vertex="1" parent="1">
          <mxGeometry x="776.5" y="536" width="50" height="88" as="geometry" />
        </mxCell>
      </root>
    </mxGraphModel>
  </diagram>
</mxfile>
